<svg width="15" height="15" viewBox="0 0 15 15" fill="none" xmlns="http://www.w3.org/2000/svg">
    <path
        d="M7.19629 14.0371C3.38867 14.0371 0.223633 10.8721 0.223633 7.06445C0.223633 3.25 3.38184 0.0917969 7.18945 0.0917969C11.0039 0.0917969 14.1689 3.25 14.1689 7.06445C14.1689 10.8721 11.0107 14.0371 7.19629 14.0371ZM4.89941 9.93555C5.05664 9.93555 5.2002 9.88086 5.30957 9.77148L7.19629 7.87109L9.08984 9.77148C9.19238 9.88086 9.33594 9.93555 9.49316 9.93555C9.81445 9.93555 10.0674 9.68262 10.0674 9.36816C10.0674 9.21094 10.0127 9.06738 9.89648 8.96484L8.00293 7.07129L9.90332 5.1709C10.0264 5.04785 10.0742 4.9248 10.0742 4.76758C10.0742 4.45312 9.82129 4.20703 9.50684 4.20703C9.35645 4.20703 9.2334 4.25488 9.11719 4.37109L7.19629 6.27832L5.28906 4.37793C5.17969 4.27539 5.05664 4.2207 4.89941 4.2207C4.58496 4.2207 4.33887 4.45996 4.33887 4.78125C4.33887 4.93164 4.39355 5.06836 4.50293 5.17773L6.39648 7.07129L4.50293 8.97168C4.39355 9.07422 4.33887 9.21777 4.33887 9.36816C4.33887 9.68262 4.58496 9.93555 4.89941 9.93555Z"
        fill="var(--figma-color-icon-danger)" />
</svg>
