<svg width="15" height="15" viewBox="0 0 15 15" fill="none" xmlns="http://www.w3.org/2000/svg">
  <path
      d="M7.19629 14.0371C3.38867 14.0371 0.223633 10.8721 0.223633 7.06445C0.223633 3.25 3.38184 0.0917969 7.18945 0.0917969C11.0039 0.0917969 14.1689 3.25 14.1689 7.06445C14.1689 10.8721 11.0107 14.0371 7.19629 14.0371ZM6.43066 10.4072C6.66309 10.4072 6.86133 10.2979 7.00488 10.0723L10.2178 5.01367C10.2998 4.87012 10.3887 4.71289 10.3887 4.5625C10.3887 4.24121 10.1084 4.03613 9.80762 4.03613C9.62988 4.03613 9.45215 4.14551 9.32227 4.35059L6.40332 9.04004L5.01562 7.24902C4.84473 7.02344 4.69434 6.96191 4.49609 6.96191C4.18848 6.96191 3.94922 7.21484 3.94922 7.52246C3.94922 7.67969 4.01074 7.83008 4.11328 7.9668L5.8291 10.0723C6.00684 10.3115 6.19824 10.4072 6.43066 10.4072Z"
      fill="var(--figma-color-icon-success)"
  />
</svg>