<svg width="40" height="40" viewBox="0 0 40 40" fill="none" xmlns="http://www.w3.org/2000/svg">
    <path
        d="M9.32982 35.2658C6.17806 35.2658 4.71663 33.8043 4.71663 30.6526V26.8493C4.71663 26.4796 4.6286 26.2331 4.36448 25.9514L1.67052 23.2398C-0.548029 21.0212 -0.565637 18.9612 1.67052 16.7426L4.36448 14.031C4.6286 13.7669 4.71663 13.5028 4.71663 13.1507V9.32982C4.71663 6.16045 6.17806 4.71663 9.32982 4.71663H13.1507C13.5028 4.71663 13.7669 4.6286 14.031 4.36448L16.7426 1.67052C18.9612 -0.548029 21.0212 -0.565637 23.2398 1.67052L25.9514 4.36448C26.2331 4.6286 26.4796 4.71663 26.8493 4.71663H30.6526C33.8219 4.71663 35.2658 6.19567 35.2658 9.32982V13.1507C35.2658 13.5028 35.3714 13.7669 35.6355 14.031L38.3295 16.7426C40.548 18.9612 40.5656 21.0212 38.3295 23.2398L35.6355 25.9514C35.3714 26.2331 35.2658 26.4796 35.2658 26.8493V30.6526C35.2658 33.8219 33.8043 35.2658 30.6526 35.2658H26.8493C26.4796 35.2658 26.2331 35.3714 25.9514 35.6355L23.2398 38.3295C21.0212 40.548 18.9612 40.5656 16.7426 38.3295L14.031 35.6355C13.7669 35.3714 13.5028 35.2658 13.1507 35.2658H9.32982ZM18.028 28.5925C18.6266 28.5925 19.1372 28.3108 19.507 27.7473L27.7825 14.7001C27.9938 14.348 28.2227 13.943 28.2227 13.538C28.2227 12.7281 27.5008 12.1998 26.7437 12.1998C26.2683 12.1998 25.8105 12.464 25.476 13.0098L17.9575 25.0886L14.3832 20.4754C13.943 19.8944 13.5556 19.7183 13.0626 19.7183C12.2527 19.7183 11.6364 20.3698 11.6364 21.1797C11.6364 21.5671 11.7949 21.972 12.059 22.3242L16.4785 27.7473C16.9363 28.3636 17.4293 28.5925 18.028 28.5925Z"
        fill="var(--figma-color-icon-success)" />
</svg>
